<?xml version="1.0" encoding="UTF-8"?>
<svg version="1.1" xmlns="http://www.w3.org/2000/svg" width="144" height="144">
<path d="M0 0 C47.52 0 95.04 0 144 0 C144 47.52 144 95.04 144 144 C96.48 144 48.96 144 0 144 C0 96.48 0 48.96 0 0 Z " fill="#FFFFFF" transform="translate(0,0)"/>
<path d="M0 0 C33.33 0 66.66 0 101 0 C101 33.33 101 66.66 101 101 C67.67 101 34.34 101 0 101 C0 67.67 0 34.34 0 0 Z " fill="#FE6702" transform="translate(22,22)"/>
<path d="M0 0 C2 2 2 2 2.125 5.625 C2.08375 6.73875 2.0425 7.8525 2 9 C1.01 9.33 0.02 9.66 -1 10 C-1 11.65 -1 13.3 -1 15 C-0.40832031 15.17015625 0.18335938 15.3403125 0.79296875 15.515625 C5.60098686 16.99018847 9.36416981 18.36416981 13 22 C13.99 23.98 13.99 23.98 15 26 C15.33 22.37 15.66 18.74 16 15 C20.95 15 25.9 15 31 15 C31 33.15 31 51.3 31 70 C26.05 70 21.1 70 16 70 C15.67 66.37 15.34 62.74 15 59 C14.505 59.886875 14.01 60.77375 13.5 61.6875 C10.57810206 66.0912176 6.06488434 69.04146047 1.0390625 70.61328125 C-6.27147256 71.99976204 -12.11765817 71.23101914 -18.66015625 67.64453125 C-22.43994484 64.98795195 -25.24352492 61.67834257 -28 58 C-32.6876401 60.27400413 -36.27367229 62.14786435 -38.25 67.1875 C-38.4975 68.115625 -38.745 69.04375 -39 70 C-40 71 -40 71 -43.375 71.25 C-47 71 -47 71 -48.9375 69.8125 C-50.38718434 67.33950907 -50.42317323 65.82115488 -50 63 C-48.29149948 60.28649918 -46.94558039 59.98612834 -43.8125 59.1875 C-36.86294408 57.1043719 -36.86294408 57.1043719 -32 52 C-30.46134243 45.54310628 -29.18700788 36.54332502 -32.28515625 30.48828125 C-34.86538397 28.24894922 -37.7274469 27.78783686 -41 27 C-42 26 -42 26 -42.1875 22.5625 C-42 19 -42 19 -40 17 C-34.85192698 16.45233266 -34.85192698 16.45233266 -32.25 18.125 C-30.60720402 20.58919398 -29.91445746 23.1956638 -29 26 C-28.34 26.33 -27.68 26.66 -27 27 C-26.73960938 26.40445313 -26.47921875 25.80890625 -26.2109375 25.1953125 C-24.92148412 22.85765831 -23.66460378 21.57615425 -21.625 19.875 C-21.03976563 19.37742187 -20.45453125 18.87984375 -19.8515625 18.3671875 C-16.47090802 15.87092364 -13.9819038 14.73393654 -9.75 14.875 C-8.5125 14.91625 -7.275 14.9575 -6 15 C-6 13.35 -6 11.7 -6 10 C-6.99 9.67 -7.98 9.34 -9 9 C-9.48492623 2.57472739 -9.48492623 2.57472739 -7.3125 0 C-4.39120636 -1.26326211 -2.98201353 -1.02016252 0 0 Z " fill="#FFF9F6" transform="translate(82,37)"/>
<path d="M0 0 C3.7229703 2.6592645 6.55543557 5.73587115 8.625 9.875 C9.18213132 15.83201945 9.14680186 20.82708399 5.625 25.875 C1.9084908 29.61232998 -1.85548373 32.79626512 -7.25 32.96484375 C-9.33346161 32.863275 -11.41679816 32.75910784 -13.5 32.65234375 C-16.79278972 32.907356 -17.91589916 33.77268834 -20.375 35.875 C-21.035 35.875 -21.695 35.875 -22.375 35.875 C-22.25640625 35.318125 -22.1378125 34.76125 -22.015625 34.1875 C-21.26115411 29.72103233 -21.03952549 26.82410062 -23.3125 22.8125 C-25.61936276 18.73919338 -26.40639186 15.50281044 -25.375 10.875 C-20.58045457 -0.30547189 -11.41778497 -3.80592832 0 0 Z " fill="#FF6907" transform="translate(84.375,63.125)"/>
<path d="M0 0 C1.32 0 2.64 0 4 0 C4 2.31 4 4.62 4 7 C2.68 7 1.36 7 0 7 C0 4.69 0 2.38 0 0 Z " fill="#FFE1CD" transform="translate(67,71)"/>
<path d="M0 0 C0.99 0 1.98 0 3 0 C3 2.31 3 4.62 3 7 C2.01 7 1.02 7 0 7 C0 4.69 0 2.38 0 0 Z " fill="#FFF9F5" transform="translate(82,71)"/>
<path d="M0 0 C0 0.66 0 1.32 0 2 C-5.47619048 7 -5.47619048 7 -8 7 C-6.47663111 3.31852519 -4.31953005 0 0 0 Z " fill="#FF7520" transform="translate(70,63)"/>
</svg>
